<svg width="34" height="37" viewBox="0 0 34 37" fill="none" xmlns="http://www.w3.org/2000/svg">
<g filter="url(#filter0_d_97_3298)">
<circle cx="17" cy="16" r="12.25" stroke="#00696E" stroke-width="1.5"/>
<path d="M16.778 21.084C16.526 21.084 16.316 21.014 16.148 20.874C15.9893 20.7247 15.91 20.5147 15.91 20.244V14.84C15.91 14.5693 15.9893 14.364 16.148 14.224C16.316 14.084 16.526 14.014 16.778 14.014C17.03 14.014 17.24 14.084 17.408 14.224C17.576 14.364 17.66 14.5693 17.66 14.84V20.244C17.66 20.5147 17.576 20.7247 17.408 20.874C17.24 21.014 17.03 21.084 16.778 21.084ZM16.778 12.768C16.4607 12.768 16.2087 12.684 16.022 12.516C15.8353 12.3387 15.742 12.11 15.742 11.83C15.742 11.55 15.8353 11.326 16.022 11.158C16.2087 10.99 16.4607 10.906 16.778 10.906C17.086 10.906 17.3333 10.99 17.52 11.158C17.716 11.326 17.814 11.55 17.814 11.83C17.814 12.11 17.7207 12.3387 17.534 12.516C17.3473 12.684 17.0953 12.768 16.778 12.768Z" fill="#00696E"/>
</g>
<defs>
<filter id="filter0_d_97_3298" x="0" y="3" width="34" height="34" filterUnits="userSpaceOnUse" color-interpolation-filters="sRGB">
<feFlood flood-opacity="0" result="BackgroundImageFix"/>
<feColorMatrix in="SourceAlpha" type="matrix" values="0 0 0 0 0 0 0 0 0 0 0 0 0 0 0 0 0 0 127 0" result="hardAlpha"/>
<feOffset dy="4"/>
<feGaussianBlur stdDeviation="2"/>
<feComposite in2="hardAlpha" operator="out"/>
<feColorMatrix type="matrix" values="0 0 0 0 0 0 0 0 0 0 0 0 0 0 0 0 0 0 0.25 0"/>
<feBlend mode="normal" in2="BackgroundImageFix" result="effect1_dropShadow_97_3298"/>
<feBlend mode="normal" in="SourceGraphic" in2="effect1_dropShadow_97_3298" result="shape"/>
</filter>
</defs>
</svg>
